<svg xmlns="http://www.w3.org/2000/svg" viewBox="0 0 302.4 319.5">
  <defs>
    <clipPath id="a">
      <path d="M0 0h460v486H0z"/>
    </clipPath>
  </defs>
  <g clip-path="url(#a)" transform="scale(.6573)">
    <path fill="#fff" d="M0 0h460v486H0V0"/>
    <path fill="none" stroke="#000" stroke-miterlimit="10" d="M22 2v434M22 1l-4 4m4-4l4 4m-5 432h437m1 0l-4-4m4 4l-4 4m-433-4v3m33-3v2m33-2v3m33-3v2m33-2v3m34-3v2m33-2v3m33-3v2m33-2v3m34-3v2m33-2v3m33-3v2m33-2v3m33-3v2m67-2v2M22 403h-2m-1-33h3m0-33h-2m-1-33h3m0-34h-2m-1-33h3m0-33h-2m-1-33h3m0-34h-2m-1-33h3m0-33h-2m-1-33h3m0-33h-2"/>
    <path fill="none" stroke="#000" stroke-linecap="round" stroke-linejoin="round" stroke-miterlimit="10" stroke-opacity=".7" stroke-width="3" d="M420 437c0-19-59-34-133-34-73 0-133 15-133 34 0 18 60 33 133 33 74 0 133-15 133-33z"/>
    <path fill="#006400" fill-opacity=".1" d="M22 138a100 100 0 0031-5L22 38z"/>
    <path fill="none" stroke="#006400" stroke-linecap="round" stroke-linejoin="round" stroke-miterlimit="10" stroke-opacity=".7" stroke-width="3" d="M22 138a100 100 0 0031-5L22 38z"/>
    <path fill="#006400" fill-opacity=".7" fill-rule="evenodd" d="M53 133l-14 5v-9z"/>
    <path fill="#006400" d="M42 159l-2 9s4 0 6 3l1 3s0 4-3 7c0 0-4 4-8 4h-1l-1 6-1 1h-1l1-4 1-3s-4 0-6-4l-1-3s0-4 3-7c0 0 4-3 8-3l3-9v-1h1v1m-8 25l4-16s-4 1-7 5c0 0-2 2-2 6 0 0 0 3 3 5h2m5-16l-4 16s5 0 7-4l2-6s0-4-3-5z"/>
    <path fill="#006400" fill-opacity=".7" d="M50 189l2-7v-2l-1-1-2 2v2l-1-1 1-2 1-2h1l2 2 1 1s1-3 4-3c0 0 2 0 3 2v1l-2 6v3s2 0 3-3v-1h1l-1 2s-1 2-3 2l-2-1v-2l2-6-1-2s-3 0-4 3h-1v3l-1 3v2h-1-1z"/>
    <path fill="#006400" fill-opacity=".1" d="M22 118a80 80 0 0056-24L22 38z"/>
    <path fill="none" stroke="#006400" stroke-linecap="round" stroke-linejoin="round" stroke-miterlimit="10" stroke-opacity=".7" stroke-width="3" d="M22 118a80 80 0 0056-24L22 38z"/>
    <path fill="#006400" fill-opacity=".7" fill-rule="evenodd" d="M78 94l-10 12-5-8z"/>
    <path fill="#006400" d="M84 140l-3 9s5 0 7 3l1 3s0 4-4 7c1 0-3 4-7 4h-1l-1 6-1 1h-1l1-4 1-3s-4 0-6-4l-1-3s0-4 3-7c0 0 3-3 8-3l3-9v-1h1v1m-8 25l4-16s-4 1-7 5c0 0-2 2-2 6 0 0 0 3 3 5h2m5-16l-4 16s5 0 7-4l2-6s0-4-3-5z"/>
    <path fill="#006400" fill-opacity=".7" d="M92 170l2-7v-2l-1-1-2 2v2l-1-1 1-2 1-2h1l2 2 1 1s1-3 4-3c0 0 2 0 3 2v1l-2 6v3s2 0 3-3v-1h1l-1 2s-1 2-3 2l-2-1v-2l2-6-1-2s-3 0-4 3h-1v3l-1 3-1 2h-1zm25-5v7l-1 1-1-1v-7h-7l-1-1h8v-7l1-1 1 1v7h8l-1 1zm17-11v16h3v1h-8v-1h3v-15l-3 1v-1s3 0 5-2v1z"/>
    <path fill="none" stroke="#000" stroke-linecap="round" stroke-linejoin="round" stroke-miterlimit="10" stroke-opacity=".7" stroke-width="3" d="M22 38l133 399M22 38l398 399m-133 0H171"/>
    <path fill-opacity=".7" fill-rule="evenodd" d="M154 437l17-5v9z"/>
    <path d="M222 429l1-7 1-2-1-2-2 3v1h-1v-2l1-1 1-1h1l2 1a3 3 0 000 1l4-2 2 1-1 2-1-1 1-1v-1h-1l-2 1-2 2v1l-1 3-1 5-1 1-1-1z"/>
    <path fill="none" stroke="#000" stroke-linecap="round" stroke-linejoin="round" stroke-miterlimit="10" stroke-opacity=".7" stroke-width="3" d="M154 437h116"/>
    <path fill-opacity=".7" fill-rule="evenodd" d="M287 437l-17 4v-9z"/>
    <path fill="#00f" d="M27 38a5 5 0 11-10 0 5 5 0 0110 0z"/>
    <path fill="none" stroke="#000" stroke-linecap="round" stroke-linejoin="round" stroke-miterlimit="10" d="M27 38a5 5 0 11-10 0 5 5 0 0110 0z"/>
    <path fill="#00f" d="M40 34l13-23h2v1l2 23 1 2h2v1h-9l-1-1h1s3 0 3-2l-1-6h-9l-3 5-1 1 2 2h1l-1 1h-7l-1-1h1l4-2 1-2m5-5h8l-1-13zm114 409a5 5 0 11-10 0 5 5 0 0110 0z"/>
    <path fill="none" stroke="#000" stroke-linecap="round" stroke-linejoin="round" stroke-miterlimit="10" d="M159 437a5 5 0 11-10 0 5 5 0 0110 0z"/>
    <path fill="#00f" d="M129 471l5-20v-1-1h-3v-1h14s5 0 7 4c0 0 2 2 2 6 0 0 0 5-4 10 0 0-4 4-9 6h-16v-1h1l3-1v-1m8-20l-5 20v2h5s5 0 9-4v-1s3-4 4-10v-2s0-5-4-6l-3-1h-4l-1 1zm288-15a5 5 0 11-10 0 5 5 0 0110 0z"/>
    <path fill="none" stroke="#000" stroke-linecap="round" stroke-linejoin="round" stroke-miterlimit="10" d="M425 437a5 5 0 11-10 0 5 5 0 0110 0z"/>
    <path fill="#00f" d="M451 449l-3 9v1h-1v-2s0-5-3-7l-3-1s-4 0-7 3l-2 2s-4 4-4 11l-1 2s0 5 4 7l4 1s3 0 7-3l4-6h1l-1 2-4 5s-3 3-8 3c0 0-5 0-8-3 0 0-2-3-2-8 0 0 0-5 4-10 0 0 4-5 9-6l4-1s4 0 6 4l3-3 1-1v1zM27 437a5 5 0 11-10 0 5 5 0 0110 0z"/>
    <path fill="none" stroke="#000" stroke-linecap="round" stroke-linejoin="round" stroke-miterlimit="10" d="M27 437a5 5 0 11-10 0 5 5 0 0110 0z"/>
    <path fill="#00f" d="M13 471l5-20v-1-1h-3v-1h14s4 0 6 3l1 2s0 3-4 6l-4 1s4 1 5 3l1 3s0 3-3 5c0 0-3 3-8 3H9v-1h1l3-1v-1m6-11h5s4 0 7-3l1-4s0-3-2-3l-2-1h-5l-1 1-1 1-2 9m-2 13h5s4 0 6-3c0 0 2-2 2-5l-2-4h-9l-3 11v1z"/>
    <path fill="#7d7dff" d="M292 437a5 5 0 11-10 0 5 5 0 0110 0z"/>
    <path fill="none" stroke="#000" stroke-linecap="round" stroke-linejoin="round" stroke-miterlimit="10" d="M292 437a5 5 0 11-10 0 5 5 0 0110 0z"/>
    <path fill="none" stroke="#000" stroke-linecap="round" stroke-linejoin="round" stroke-miterlimit="10" stroke-opacity=".7" stroke-width="3" d="M22 437V55"/>
    <path fill-opacity=".7" fill-rule="evenodd" d="M22 38l4 17h-9z"/>
    <path d="M38 238l-3 13s2-3 6-3c0 0 3 0 4 2v2l-2 8-1 3 1 1s2 0 4-4v-1h1l-1 2s-2 4-4 4c0 0-2 0-3-2v-1-2l3-9s0-3-2-3l-4 2-3 3v2l-1 2-1 4v3l-2 1-1-1v-1l6-22v-1h-2l-1-1 1-1h5z"/>
    <path fill="none" stroke="#000" stroke-linecap="round" stroke-linejoin="round" stroke-miterlimit="10" stroke-opacity=".7" stroke-width="3" d="M22 38v382"/>
    <path fill-opacity=".7" fill-rule="evenodd" d="M22 437l-5-17h9z"/>
  </g>
</svg>
