<svg xmlns="http://www.w3.org/2000/svg" viewBox="0 0 302.4 339.7">
  <defs>
    <clipPath id="a">
      <path d="M0 0h599v673H0z"/>
    </clipPath>
  </defs>
  <g clip-path="url(#a)" transform="scale(.50478)">
    <path fill="#fff" d="M0 0h599v673H0V0"/>
    <path fill="none" stroke="#000" stroke-miterlimit="10" d="M7 2v614M7 1L4 4m3-3l3 3M6 616h591m1 0l-3-3m3 3l-3 3M7 616v3m56-3v3m29-3v2m28-2v3m29-3v2m28-2v3m28-3v2m29-2v3m28-3v2m29-2v3m28-3v2m28-2v3m29-3v2m28-2v3m28-3v2m29-2v3m28-3v2m29-2v3m28-3v2m28-2v3m29-3v2m57-2v2M7 588H5m-1-28h3m0-29H5m-1-28h3m0-29H5m-1-28h3m0-28H5m-1-29h3m0-28H5m-1-29h3m0-28H5m-1-28h3m0-29H5m-1-28h3m0-28H5m-1-29h3m0-28H5m-1-29h3m0-28H5M4 49h3m0-29H5"/>
    <path fill="none" stroke="#000" stroke-linecap="round" stroke-linejoin="round" stroke-miterlimit="10" stroke-width="3" d="M574 446a170 170 0 11-340 0 170 170 0 01340 0z"/>
    <path fill="#006400" fill-opacity=".1" d="M7 149c16 0 31-4 46-12L7 49z"/>
    <path fill="none" stroke="#006400" stroke-linecap="round" stroke-linejoin="round" stroke-miterlimit="10" d="M7 149c16 0 31-4 46-12L7 49z"/>
    <path fill="#006400" fill-rule="evenodd" d="M53 137l-11 7-2-8z"/>
    <path fill="#006400" d="M40 158l-3 10s6 1 8 5l1 4s0 4-4 8c0 0-4 3-10 4l-2 6v2l-1 1v-1l1-4 1-4s-5 0-8-4l-1-4s0-5 4-8c0 0 4-4 9-5h1l3-10v-1l1 1m-9 30l5-19s-6 1-9 5l-2 8s0 4 4 5l2 1m6-19l-5 19s5-1 8-5c0 0 3-4 3-7 0 0 0-5-4-6l-2-1zm13 24l1-7 1-3-1-1-2 3v1h-1v-2l1-1 1-2h1s2 0 3 2v1s2-3 5-3c0 0 3 0 3 2v1l-2 7v3l1 1s2 0 3-4v-1l1 1-1 2s-1 2-3 2l-3-1v-1-2l2-7-1-2s-3 0-5 3v1l-1 1v2l-1 3-1 3h-1-1z"/>
    <path fill="#006400" fill-opacity=".1" fill-rule="evenodd" d="M253 524l5 10 9-5-5-10-9 5"/>
    <path fill="none" stroke="#006400" stroke-linecap="round" stroke-linejoin="round" stroke-miterlimit="10" d="M253 524l5 10 9-5-5-10-9 5"/>
    <path fill="#006400" fill-opacity=".1" fill-rule="evenodd" d="M404 616v-10h-10v10h10"/>
    <path fill="none" stroke="#006400" stroke-linecap="round" stroke-linejoin="round" stroke-miterlimit="10" d="M404 616v-10h-10v10h10"/>
    <path fill="#006400" fill-opacity=".1" d="M351 474a60 60 0 0022 23l31-51z"/>
    <path fill="none" stroke="#006400" stroke-linecap="round" stroke-linejoin="round" stroke-miterlimit="10" d="M351 474a60 60 0 0022 23l31-51zm9 9l-4 3m9 1l-4 5"/>
    <path fill="#006400" fill-opacity=".1" d="M373 497a60 60 0 0031 9v-60z"/>
    <path fill="none" stroke="#006400" stroke-linecap="round" stroke-linejoin="round" stroke-miterlimit="10" d="M373 497a60 60 0 0031 9v-60zm13 3l-2 6m8-4l-2 5"/>
    <path fill="#006400" fill-opacity=".1" d="M345 616a45 45 0 00-21-38l-24 38z"/>
    <path fill="none" stroke="#006400" stroke-linecap="round" stroke-linejoin="round" stroke-miterlimit="10" d="M345 616a45 45 0 00-21-38l-24 38zm-8-20l5-3"/>
    <path fill="#006400" fill-opacity=".1" d="M324 578a45 45 0 00-44-2l20 40z"/>
    <path fill="none" stroke="#006400" stroke-linecap="round" stroke-linejoin="round" stroke-miterlimit="10" d="M324 578a45 45 0 00-44-2l20 40zm-22-4v-6"/>
    <path fill="none" stroke="#000" stroke-linecap="round" stroke-linejoin="round" stroke-miterlimit="10" d="M253 524l151-78m0 0v170"/>
    <path d="M417 537l3-11v-3l-1-2s-2 0-3 4v1l-1 1-1-1 1-3 1-1 2-2h1s3 0 4 2a5 5 0 000 1s3-3 6-3l3 1 1 1s0 2-2 3h-1l-1-1 1-3h1-2l-4 1-2 3v1l-2 6-1 7-2 1-1-1z"/>
    <path fill="none" stroke="#000" stroke-dasharray="5 4" stroke-linejoin="round" stroke-miterlimit="10" d="M404 446L300 616"/>
    <path fill="none" stroke="#000" stroke-linecap="round" stroke-linejoin="round" stroke-miterlimit="10" d="M300 616h104m-55-4v9m3-9v9m4-9v9"/>
    <path d="M365 628l-6 26-1 2s1 2 2 2c0 0 2 0 3-4v-2l1-1v4l-1 1s-1 3-3 3c0 0-3 0-4-2v-2s-3 4-6 4c0 0-4 0-5-3l-1-5s0-4 3-9c0 0 3-3 7-4h1s2 0 4 3l2-10 1-1-1-1h-2l-1-1 1-1h6m-9 26l2-9v-1-2s-1-2-3-2c0 0-3 0-5 4v1l-3 7v3s0 3 2 4h1s3 0 5-3l1-2zm12 10l2-7 1-3-1-1s-2 0-2 3h-1v1h-1l1-2v-1l2-2h1l2 2a3 3 0 000 1s2-3 5-3l2 1v1l-1 2h-1l-1-1 1-2h1-2l-2 1-2 2-1 4-1 5-1 1-1-1z"/>
    <path fill="#444" d="M407 616a3 3 0 11-6 0 3 3 0 016 0z"/>
    <path fill="none" stroke="#000" stroke-linecap="round" stroke-linejoin="round" stroke-miterlimit="10" d="M407 616a3 3 0 11-6 0 3 3 0 016 0z"/>
    <path fill="#006400" fill-opacity=".1" d="M280 576a45 45 0 00-25 40h45z"/>
    <path fill="none" stroke="#006400" stroke-linecap="round" stroke-linejoin="round" stroke-miterlimit="10" d="M280 576a45 45 0 00-25 40h45z"/>
    <path fill="#006400" fill-opacity=".1" d="M7 129a80 80 0 0071-44L7 49z"/>
    <path fill="none" stroke="#006400" stroke-linecap="round" stroke-linejoin="round" stroke-miterlimit="10" d="M7 129a80 80 0 0071-44L7 49z"/>
    <path fill="#006400" fill-rule="evenodd" d="M78 85l-5 12-6-5z"/>
    <path fill="#006400" d="M110 129l-3 10s6 1 8 5l1 3s0 5-4 8c0 0-4 4-9 5h-1l-2 6v2h-1l1-4 1-4s-5-1-8-4l-1-4s0-5 4-8c0 0 4-4 9-5h1l3-10v-1l1 1m-9 30l5-19s-5 1-9 5l-2 8s0 4 4 5l2 1m6-19l-5 19s6-1 9-5l2-7s0-5-4-6l-2-1zm13 24l1-7 1-3-1-1-2 3v1h-1v-2l1-1 1-2h1s2 0 3 2v1s2-3 5-3c0 0 3 0 3 2l1 1-2 7-1 3 1 1s2 0 3-4v-1l1 1-1 2s-1 2-3 2l-3-1v-1-2l2-7-1-2s-3 0-5 3v1l-1 1v2l-1 3-1 3h-1-1zm29-5v9l-1 1-1-1v-9h-8l-1-1h9v-9l1-1 1 1v9h9l-1 1zm21-13v19h3v1h-10v-1h4v-18l-4 1v-1s4 0 6-2v1z"/>
    <path fill="#006400" fill-opacity=".1" fill-rule="evenodd" d="M253 524l9-5-5-9-9 5 5 9"/>
    <path fill="none" stroke="#006400" stroke-linecap="round" stroke-linejoin="round" stroke-miterlimit="10" d="M253 524l9-5-5-9-9 5 5 9"/>
    <path fill="none" stroke="#000" stroke-linecap="round" stroke-linejoin="round" stroke-miterlimit="10" d="M7 49l597 309"/>
    <path fill="none" stroke="#000" stroke-dasharray="1 3" stroke-linejoin="round" stroke-miterlimit="10" d="M7 446h592"/>
    <path fill="none" stroke="#000" stroke-linecap="round" stroke-linejoin="round" stroke-miterlimit="10" d="M7 49l246 475"/>
    <path d="M138 334l-6 26-1 2s1 2 2 2c0 0 2 0 3-4v-2l1-1v4l-1 1s-1 3-3 3c0 0-3 0-4-2v-2s-3 4-6 4c0 0-4 0-5-3l-1-5s0-4 3-9c0 0 3-3 7-4h1s2 0 4 3l2-10 1-1-1-1h-2l-1-1 1-1h6m-9 26l2-9v-1l-1-2-2-2s-3 0-5 3v2l-3 7v3s0 3 2 4h1s2 0 5-3l1-2zm24 0l-3 14-3 3s-1 2-4 2c0 0-4 0-4-2v-1l1-1h1l1 1-1 1 2 1s3 0 5-4l1-4-4 2s-2 0-3-2l-1-3 2-6s2-3 5-3 2 0 3 2 0-1 1-1l1 1m-4 8l2-6-1-2-1-1h-1l-3 2v1l-2 5v1l1 3h1l3-1 1-2z"/>
    <path fill="none" stroke="#000" stroke-linecap="round" stroke-linejoin="round" stroke-miterlimit="10" d="M253 524l47 92m-21-51l-8 4m10-1l-8 4m9-1l-8 5"/>
    <path fill="none" stroke="#000" stroke-dasharray="9 8" stroke-linejoin="round" stroke-miterlimit="10" d="M7 49l387 387"/>
    <path fill-rule="evenodd" d="M404 446l-12-7 5-5z"/>
    <path d="M241 223l-6 26-1 2s1 2 2 2c0 0 2 0 3-4v-2l1-1v4l-1 1s-1 3-3 3c0 0-3 0-4-2v-2s-3 4-6 4c0 0-4 0-5-3l-1-4s0-5 3-9c0 0 3-4 7-4l1-1s2 0 4 3l2-10 1-1-1-1h-2l-1-1h1l6-1v1m-9 25l2-9v-1l-1-2-2-2s-3 0-5 3v2l-3 7v3s0 3 2 4h1s2 0 5-3l1-2zm22 0l-3-1s-2 0-3 2l-1 1-2 5v1s0 3 2 4h1s3 0 5-2l1-2h1v1l-1 1-6 2s-3 0-4-2l-1-3 2-6s3-3 6-3 3 0 3 2l1 1-1 2h-1l-1-1 1-2h1z"/>
    <path fill="none" stroke="#000" stroke-linecap="round" stroke-linejoin="round" stroke-miterlimit="10" d="M7 616h279"/>
    <path fill-rule="evenodd" d="M300 616l-14 4v-7z"/>
    <path d="M152 623l-6 26-1 2s1 2 2 2c0 0 2 0 3-4v-2l1-1v4l-1 1s-1 3-3 3c0 0-3 0-4-2v-2s-3 4-6 4c0 0-4 0-5-3l-1-5s0-4 3-9c0 0 3-3 7-4h1s2 0 4 3l2-10 1-1-1-1h-2l-1-1 1-1h6m-9 26l2-9v-1l-1-2-2-1s-3 0-5 3v1l-3 7v3s0 3 2 4h1s2 0 5-3l1-2zm23-9l-2 7s4 0 6 3v3s0 3-2 5c0 0-3 3-7 3l-1 5-1 1v0-3l1-2v-1s-4 0-5-2l-1-3s0-3 3-6c0 0 2-3 6-3h1l1-7 1-1v1m-6 21l3-13s-3 0-5 3l-2 5s0 3 3 4l1 1m4-13l-3 13s4-1 6-4l1-5s0-3-2-4h-2z"/>
    <path fill="none" stroke="#000" stroke-linecap="round" stroke-linejoin="round" stroke-miterlimit="10" d="M7 616V460"/>
    <path fill-rule="evenodd" d="M7 446l3 14H3z"/>
    <path d="M24 541l3-11v-3l-1-2s-2 0-3 4v1l-1 1-1-1 1-3 1-1 2-2h1s3 0 4 2a5 5 0 000 1s3-3 6-3l3 1 1 1s0 2-2 3h-1l-2-1 2-3h1-2l-4 1-2 3v1l-2 6-2 7-1 1-1-1z"/>
    <path fill="none" stroke="#000" stroke-linecap="round" stroke-linejoin="round" stroke-miterlimit="10" d="M7 446V63"/>
    <path fill-rule="evenodd" d="M7 49l3 14H3z"/>
    <path d="M26 285l-4 14s3-4 7-4c0 0 4 0 5 3v2l-3 10v3l1 2s3 0 4-5v-1l1-1 1 1-1 3s-2 4-5 4c0 0-3 0-4-2v-2l1-2 2-11s0-3-2-3l-4 2-3 4-1 2-1 3-1 4-1 4-1 1-1-1v-2l6-26v-1h-2l-1-1 1-1h6zm53 20H54l-1-1 1-1h25l1 1-1 1zm19 8l3-11v-4l-1-2s-2 0-3 5l-1 1v1l-1-1 1-3 1-1 2-3h1s3 0 4 3a5 5 0 000 1s3-3 6-4c0 0 2 0 3 2l1 1s0 2-2 3h-1l-2-1v-1l2-2h1-1l-1-1-4 2-2 3-2 6-2 7-1 2-2-2z"/>
    <path fill="none" stroke="#000" stroke-linecap="round" stroke-linejoin="round" stroke-miterlimit="10" d="M7 49v383"/>
    <path fill-rule="evenodd" d="M7 446l-4-14h7z"/>
    <path fill="none" stroke="#000" stroke-linecap="round" stroke-linejoin="round" stroke-miterlimit="10" d="M7 446v156"/>
    <path fill-rule="evenodd" d="M7 616l-4-14h7z"/>
    <path fill="none" stroke="#000" stroke-linecap="round" stroke-linejoin="round" stroke-miterlimit="10" d="M300 616H21"/>
    <path fill-rule="evenodd" d="M7 616l14-3v7z"/>
    <path fill="#00f" d="M13 616a6 6 0 11-12 0 6 6 0 0112 0z"/>
    <path fill="none" stroke="#000" stroke-linecap="round" stroke-linejoin="round" stroke-miterlimit="10" d="M13 616a6 6 0 11-12 0 6 6 0 0112 0z"/>
    <path fill="#00f" d="M13 657l6-24v-1h-3l-1-1 1-1h16s5 0 7 3l1 3s0 4-4 7-3 1-5 2c0 0 4 0 6 3l1 3s0 3-4 6c0 0-4 4-9 4H9l-1-1v-1h5v-2m7-13h6s5 0 8-3c0 0 2-2 2-5 0 0 0-3-3-4l-2-1h-6l-2 1v1l-3 11m-2 15h6s4 0 7-3c0 0 2-2 2-5 0 0 0-4-2-5l-3-1h-8l-3 13-1 1h2zm391-213a5 5 0 11-10 0 5 5 0 0110 0z"/>
    <path fill="none" stroke="#000" stroke-linecap="round" stroke-linejoin="round" stroke-miterlimit="10" d="M409 446a5 5 0 11-10 0 5 5 0 0110 0z"/>
    <path fill="#00f" d="M448 403l-25 28h8s6 0 9-3l3-6v-1h1v1l-3 10-1 1h-20l-1-1 25-28h-7s-6 0-9 3-1 2-2 5h-1-1v-1l3-8 1-1h21zM12 49a5 5 0 11-10 0 5 5 0 0110 0z"/>
    <path fill="none" stroke="#000" stroke-linecap="round" stroke-linejoin="round" stroke-miterlimit="10" d="M12 49a5 5 0 11-10 0 5 5 0 0110 0z"/>
    <path fill="#00f" d="M31 44l16-27h2v1l3 28v1h2l1 1v1H44l-1-1 1-1 4-1-1-8H36l-4 6v2l2 1v2h-9v-1-1h1s2 0 4-2l1-1m6-7h10l-2-15zm221 487a5 5 0 11-10 0 5 5 0 0110 0z"/>
    <path fill="none" stroke="#000" stroke-linecap="round" stroke-linejoin="round" stroke-miterlimit="10" d="M258 524a5 5 0 11-10 0 5 5 0 0110 0z"/>
    <path fill="#00f" d="M207 551l6-24v-1h-3l-1-1 1-1h16s5 0 8 5c0 0 2 2 2 6 0 0 0 7-4 13 0 0-5 5-11 6l-3 1h-15l-1-1v-1h5v-2m10-24l-6 25-1 1h7s6 0 10-4v-1s4-4 5-12v-2s0-6-5-8l-3-1h-5l-2 1v1zm88 89a5 5 0 11-10 0 5 5 0 0110 0z"/>
    <path fill="none" stroke="#000" stroke-linecap="round" stroke-linejoin="round" stroke-miterlimit="10" d="M305 616a5 5 0 11-10 0 5 5 0 0110 0z"/>
    <path fill="#00f" d="M309 632l-3 11v1l-1-1v-2s0-6-3-8l-4-1s-5 0-9 4l-2 2s-5 5-6 13v2s0 6 5 8l4 1s4 0 7-2c0 0 2-1 2-3l1-4-1-1h-4v-1l1-1 6 1h5v1h-3v2l-1 2-1 4-1 2v1l-1-2-1-1-3 3h-1l-5 1s-6 0-10-4c0 0-3-4-3-8 0 0 0-7 5-13 0 0 5-6 11-7l4-1s5 0 8 4l3-3 1-1zM12 446a5 5 0 11-10 0 5 5 0 0110 0z"/>
    <path fill="none" stroke="#000" stroke-linecap="round" stroke-linejoin="round" stroke-miterlimit="10" d="M12 446a5 5 0 11-10 0 5 5 0 0110 0z"/>
    <path fill="#00f" d="M47 424l-4 10-1 1H18l-1-1v-1h5v-2l6-24v-1l-2-1h-2l1-1h23l1 1-1 8v1h-1v-4s0-3-1-4l-5-1h-7l-2 1v1l-3 11h4l5-1 1-3 1-1-2 11-1 1v-1-2l-1-2-3-1h-4l-3 13-1 1h9s5 0 8-2l3-6 1-1v-1l1 1z"/>
  </g>
</svg>
